<svg width="55" height="55" viewBox="0 0 55 55" fill="none" xmlns="http://www.w3.org/2000/svg">
<g style="mix-blend-mode:darken">
<circle cx="27.5" cy="27.5" r="27.5" fill="#F8D57E"/>
</g>
<path fill-rule="evenodd" clip-rule="evenodd" d="M12.4167 23.5833C12.4167 15.6226 19.5376 9.41663 28 9.41663C36.4623 9.41663 43.5833 15.6226 43.5833 23.5833C43.5833 24.3657 42.9491 25 42.1667 25H13.8333C13.0509 25 12.4167 24.3657 12.4167 23.5833ZM15.3501 22.1666H40.6499C39.8704 16.6782 34.6242 12.25 28 12.25C21.3758 12.25 16.1296 16.6782 15.3501 22.1666ZM12.6909 26.9955C13.1536 26.3646 14.0402 26.2282 14.6711 26.6909L17.806 28.9898L22.1658 26.592C22.5909 26.3582 23.1061 26.3582 23.5312 26.592L28 29.0498L32.4688 26.592C32.8939 26.3582 33.4091 26.3582 33.8342 26.592L38.194 28.9898L41.3289 26.6909C41.9598 26.2282 42.8464 26.3646 43.3091 26.9955C43.7718 27.6265 43.6354 28.513 43.0044 28.9757L39.1408 31.809C38.6964 32.135 38.1033 32.1735 37.6203 31.9079L33.1515 29.4501L28.6827 31.9079C28.2576 32.1417 27.7424 32.1417 27.3173 31.9079L22.8485 29.4501L18.3797 31.9079C17.8968 32.1735 17.3036 32.135 16.8592 31.809L12.9956 28.9757C12.3646 28.513 12.2282 27.6265 12.6909 26.9955ZM12.4167 34.9166C12.4167 34.1342 13.0509 33.5 13.8333 33.5H42.1667C42.9491 33.5 43.5833 34.1342 43.5833 34.9166V39.1666C43.5833 39.949 42.9491 40.5833 42.1667 40.5833H13.8333C13.0509 40.5833 12.4167 39.949 12.4167 39.1666V34.9166ZM15.25 36.3333V37.75H40.75V36.3333H15.25Z" fill="black" fill-opacity="0.85"/>
</svg>
