<svg width="55" height="55" viewBox="0 0 55 55" fill="none" xmlns="http://www.w3.org/2000/svg">
<g style="mix-blend-mode:darken">
<circle cx="27.5" cy="27.5" r="27.5" fill="#F8D57E"/>
</g>
<path fill-rule="evenodd" clip-rule="evenodd" d="M36.8667 9.47291C37.4109 10.0666 37.3708 10.9891 36.7771 11.5334L31.5862 16.2917H41.625C43.2359 16.2917 44.5417 17.5975 44.5417 19.2083V38.1667C44.5417 39.7775 43.2359 41.0833 41.625 41.0833H15.375C13.7642 41.0833 12.4583 39.7775 12.4583 38.1667V19.2083C12.4583 17.5975 13.7642 16.2917 15.375 16.2917H23.7778L20.2803 13.4062C19.659 12.8936 19.5709 11.9745 20.0834 11.3532C20.596 10.7319 21.5151 10.6438 22.1364 11.1563L27.7867 15.8179L34.8062 9.38333C35.4 8.83909 36.3224 8.8792 36.8667 9.47291ZM27.8344 19.2083H15.375V38.1667H41.625V19.2083H27.8395C27.8378 19.2083 27.8361 19.2083 27.8344 19.2083ZM38.7083 20.6667C39.5138 20.6667 40.1667 21.3196 40.1667 22.125V22.8542C40.1667 23.6596 39.5138 24.3125 38.7083 24.3125C37.9029 24.3125 37.25 23.6596 37.25 22.8542V22.1261C37.25 21.3207 37.9029 20.6667 38.7083 20.6667ZM19.75 23.5833C19.75 22.7779 20.4029 22.125 21.2083 22.125H32.875C33.6804 22.125 34.3333 22.7779 34.3333 23.5833V35.25C34.3333 36.0554 33.6804 36.7083 32.875 36.7083H21.2083C20.4029 36.7083 19.75 36.0554 19.75 35.25V23.5833ZM22.6667 25.0417V33.7917H31.4167V25.0417H22.6667ZM38.7083 25.7708C39.5138 25.7708 40.1667 26.4238 40.1667 27.2292V27.9583C40.1667 28.7638 39.5138 29.4167 38.7083 29.4167C37.9029 29.4167 37.25 28.7638 37.25 27.9583V27.2292C37.25 26.4238 37.9029 25.7708 38.7083 25.7708Z" fill="black" fill-opacity="0.85"/>
</svg>
