<svg width="55" height="55" viewBox="0 0 55 55" fill="none" xmlns="http://www.w3.org/2000/svg">
<g style="mix-blend-mode:darken">
<circle cx="27.5" cy="27.5" r="27.5" fill="#F8D57E"/>
</g>
<path d="M27.5 10.4584C29.185 10.4584 30.603 11.6014 31.0209 13.1544C32.4201 13.5674 33.73 14.2252 34.895 15.0924C35.3138 14.9257 35.7711 14.8334 36.25 14.8334C38.2635 14.8334 39.8958 16.4657 39.8958 18.4792C39.8958 19.3266 39.6068 20.1064 39.1219 20.7255C39.631 22.0912 39.8958 23.5485 39.8958 25.0417C39.8958 25.2812 39.889 25.5199 39.8755 25.7576C40.773 26.4203 41.3542 27.4861 41.3542 28.6875C41.3542 30.7011 39.7219 32.3334 37.7083 32.3334C37.6478 32.3334 37.5876 32.3319 37.5278 32.329C36.9769 33.0876 36.3421 33.7793 35.6398 34.391L39.209 39.625H40.625C41.4304 39.625 42.0833 40.278 42.0833 41.0834C42.0833 41.8313 41.5204 42.4477 40.7951 42.5319L40.625 42.5417H34.7917C33.9863 42.5417 33.3333 41.8888 33.3333 41.0834C33.3333 40.3355 33.8963 39.7191 34.6216 39.6349L34.7917 39.625H35.6769L33.2313 36.0354C32.5293 36.4019 31.7898 36.7023 31.0217 36.9296C30.603 38.482 29.185 39.625 27.5 39.625C25.8145 39.625 24.3961 38.4813 23.9787 36.9275C23.2103 36.7022 22.4716 36.4022 21.7703 36.0361L19.3217 39.625H20.2083C21.0137 39.625 21.6667 40.278 21.6667 41.0834C21.6667 41.8313 21.1037 42.4477 20.3784 42.5319L20.2083 42.5417H14.375C13.5696 42.5417 12.9167 41.8888 12.9167 41.0834C12.9167 40.3355 13.4796 39.7191 14.2049 39.6349L14.375 39.625H15.7896L19.3603 34.3909C18.6584 33.7795 18.0238 33.0881 17.471 32.3283L17.2917 32.3334C15.2781 32.3334 13.6458 30.7011 13.6458 28.6875C13.6458 27.4847 14.2283 26.418 15.1265 25.7539C15.1109 25.5179 15.1042 25.2802 15.1042 25.0417C15.1042 23.5494 15.3686 22.0923 15.8775 20.7233C15.3932 20.1064 15.1042 19.3266 15.1042 18.4792C15.1042 16.4657 16.7365 14.8334 18.75 14.8334C19.2289 14.8334 19.6862 14.9257 20.1051 15.0935C21.27 14.2252 22.5798 13.5674 23.9786 13.1536C24.397 11.6014 25.815 10.4584 27.5 10.4584ZM27.5 35.25C27.0973 35.25 26.7708 35.5765 26.7708 35.9792C26.7708 36.3819 27.0973 36.7084 27.5 36.7084C27.9027 36.7084 28.2292 36.3819 28.2292 35.9792C28.2292 35.5765 27.9027 35.25 27.5 35.25ZM27.7177 27.9504L27.5 27.9584C27.4273 27.9584 27.3552 27.9557 27.2838 27.9505L23.4278 33.6041C23.7529 33.759 24.0875 33.8956 24.4303 34.013C25.0778 33.0026 26.2107 32.3334 27.5 32.3334C28.7887 32.3334 29.9212 33.002 30.5696 34.0112L30.6162 33.997C30.9431 33.8832 31.2625 33.7518 31.5731 33.6037L27.7177 27.9504ZM30.5696 16.0722C29.9212 17.0815 28.7887 17.75 27.5 17.75C26.2113 17.75 25.0788 17.0815 24.4304 16.0722L24.2838 16.1217C23.534 16.3921 22.8224 16.7565 22.1649 17.2052C22.3152 17.6028 22.3958 18.0316 22.3958 18.4792C22.3958 20.4927 20.7635 22.125 18.75 22.125C18.66 22.125 18.5707 22.1218 18.4823 22.1154C18.1778 23.0491 18.0208 24.0336 18.0208 25.0417L18.0215 25.1148C19.6853 25.4528 20.9375 26.9239 20.9375 28.6875C20.9375 29.5602 20.6309 30.3612 20.1196 30.9888C20.3956 31.3331 20.6968 31.6573 21.0183 31.9587L24.8714 26.307C24.6868 25.9243 24.5833 25.4951 24.5833 25.0417C24.5833 23.4309 25.8892 22.125 27.5 22.125C29.1108 22.125 30.4167 23.4309 30.4167 25.0417C30.4167 25.4951 30.3132 25.9243 30.1287 26.307L33.9815 31.9591C34.3032 31.6576 34.6046 31.3332 34.8829 30.988C34.3686 30.36 34.0625 29.5595 34.0625 28.6875C34.0625 26.9239 35.3147 25.4528 36.9785 25.1148C36.9791 25.0905 36.9792 25.0661 36.9792 25.0417C36.9792 24.0332 36.822 23.0485 36.5187 22.1136L36.4897 22.1173L36.25 22.125C34.2365 22.125 32.6042 20.4927 32.6042 18.4792C32.6042 18.0316 32.6848 17.6028 32.8324 17.2066C32.1776 16.7565 31.4661 16.3921 30.7162 16.1217L30.5696 16.0722ZM17.2917 27.9584C16.889 27.9584 16.5625 28.2848 16.5625 28.6875C16.5625 29.0903 16.889 29.4167 17.2917 29.4167C17.6944 29.4167 18.0208 29.0903 18.0208 28.6875C18.0208 28.2848 17.6944 27.9584 17.2917 27.9584ZM37.7083 27.9584C37.3056 27.9584 36.9792 28.2848 36.9792 28.6875C36.9792 29.0903 37.3056 29.4167 37.7083 29.4167C38.111 29.4167 38.4375 29.0903 38.4375 28.6875C38.4375 28.2848 38.111 27.9584 37.7083 27.9584ZM18.75 17.75C18.3473 17.75 18.0208 18.0765 18.0208 18.4792C18.0208 18.8819 18.3473 19.2084 18.75 19.2084C19.1527 19.2084 19.4792 18.8819 19.4792 18.4792C19.4792 18.0765 19.1527 17.75 18.75 17.75ZM36.25 17.75C35.8473 17.75 35.5208 18.0765 35.5208 18.4792C35.5208 18.8819 35.8473 19.2084 36.25 19.2084C36.6527 19.2084 36.9792 18.8819 36.9792 18.4792C36.9792 18.0765 36.6527 17.75 36.25 17.75ZM27.5 13.375C27.0973 13.375 26.7708 13.7015 26.7708 14.1042C26.7708 14.5069 27.0973 14.8334 27.5 14.8334C27.9027 14.8334 28.2292 14.5069 28.2292 14.1042C28.2292 13.7015 27.9027 13.375 27.5 13.375Z" fill="black" fill-opacity="0.85"/>
</svg>
