<svg width="55" height="55" viewBox="0 0 55 55" fill="none" xmlns="http://www.w3.org/2000/svg">
<g style="mix-blend-mode:darken">
<circle cx="27.5" cy="27.5" r="27.5" fill="#F8D57E"/>
</g>
<path fill-rule="evenodd" clip-rule="evenodd" d="M13.625 14.1667C13.625 13.3152 14.3152 12.625 15.1667 12.625H39.8333C40.6848 12.625 41.375 13.3152 41.375 14.1667V29.3515L44.3902 39.1508C44.534 39.6184 44.4474 40.1265 44.1568 40.5201C43.8661 40.9136 43.4059 41.1458 42.9167 41.1458H12.0833C11.5941 41.1458 11.1339 40.9136 10.8432 40.5201C10.5526 40.1265 10.466 39.6184 10.6098 39.1508L13.625 29.3515V14.1667ZM16.3053 31.125L14.1707 38.0625H21.7461L22.8699 34.5138C23.0728 33.873 23.6674 33.4375 24.3396 33.4375H30.6604C31.3326 33.4375 31.9272 33.873 32.1302 34.5138L33.2539 38.0625H40.8293L38.6947 31.125H16.3053ZM38.2917 28.0417V15.7083H16.7083V28.0417H38.2917ZM30.0197 38.0625L29.5315 36.5208H25.4685L24.9803 38.0625H30.0197Z" fill="black" fill-opacity="0.85"/>
</svg>
