<svg width="55" height="55" viewBox="0 0 55 55" fill="none" xmlns="http://www.w3.org/2000/svg">
<g style="mix-blend-mode:darken">
<circle cx="27.5" cy="27.5" r="27.5" fill="#F8D57E"/>
</g>
<path fill-rule="evenodd" clip-rule="evenodd" d="M10.5833 25.0417C10.5833 19.3578 15.1911 14.75 20.875 14.75C23.6411 14.75 26.1521 15.8422 28 17.6153C29.848 15.8422 32.3589 14.75 35.125 14.75C40.8089 14.75 45.4167 19.3578 45.4167 25.0417C45.4167 30.004 42.5097 34.5407 39.1199 37.9641C35.7146 41.403 31.55 43.997 28.4993 45.0108C28.1752 45.1185 27.8249 45.1185 27.5007 45.0108C24.45 43.997 20.2854 41.403 16.8801 37.9641C13.4903 34.5407 10.5833 30.004 10.5833 25.0417ZM20.875 17.9167C16.94 17.9167 13.75 21.1067 13.75 25.0417C13.75 28.7877 15.9889 32.5635 19.1303 35.7359C22.0538 38.6884 25.525 40.8783 28 41.8267C30.475 40.8783 33.9462 38.6884 36.8697 35.7359C40.0111 32.5635 42.25 28.7877 42.25 25.0417C42.25 21.1067 39.06 17.9167 35.125 17.9167C32.7166 17.9167 30.5867 19.1102 29.2946 20.9451C28.998 21.3662 28.5151 21.6168 28 21.6168C27.4849 21.6168 27.002 21.3662 26.7054 20.9451C25.4133 19.1102 23.2834 17.9167 20.875 17.9167Z" fill="black" fill-opacity="0.85"/>
</svg>
