<svg width="55" height="55" viewBox="0 0 55 55" fill="none" xmlns="http://www.w3.org/2000/svg">
<g style="mix-blend-mode:darken">
<circle cx="27.5" cy="27.5" r="27.5" fill="#F8D57E"/>
</g>
<path fill-rule="evenodd" clip-rule="evenodd" d="M36.31 23.6667L33.4792 26.9353C33.3582 27.1678 33.184 27.3681 32.9727 27.5202L27.8216 33.4682C27.8294 33.5333 27.8333 33.5995 27.8333 33.6667V42H31.1667C32.0871 42 32.8333 42.7462 32.8333 43.6667C32.8333 44.5872 32.0871 45.3334 31.1667 45.3334H21.1667C20.2462 45.3334 19.5 44.5872 19.5 43.6667C19.5 42.7462 20.2462 42 21.1667 42H24.5V33.6667C24.5 33.5996 24.504 33.5334 24.5117 33.4683L19.3602 27.5199C19.1493 27.368 18.9753 27.1679 18.8543 26.9358L11.9163 18.9245C11.4892 18.4313 11.3891 17.7342 11.6603 17.1408C11.9314 16.5474 12.5238 16.1667 13.1762 16.1667H32.0516C32.4617 12.8781 35.267 10.3334 38.6667 10.3334C42.3486 10.3334 45.3333 13.3181 45.3333 17C45.3333 20.6819 42.3486 23.6667 38.6667 23.6667H36.31ZM33.7043 19.5H16.8244L17.3966 20.1608C17.4067 20.1719 17.4167 20.1831 17.4266 20.1945L21.1553 24.5H31.1781L34.9068 20.1945C34.9158 20.1841 34.9248 20.1739 34.934 20.1638L35.5088 19.5H33.7634C33.7436 19.5004 33.7239 19.5004 33.7043 19.5ZM28.2913 27.8334L27.5822 28.6522C27.5737 28.662 27.5653 28.6719 27.5571 28.6819L26.1666 30.2875L24.5691 28.4428C24.5595 28.4312 24.5497 28.4196 24.5398 28.4081L24.0421 27.8334H28.2913ZM35.4384 16.1667H39.157C39.8094 16.1667 40.4019 16.5474 40.673 17.1408C40.9441 17.7342 40.844 18.4313 40.4169 18.9245L39.2391 20.2844C40.8073 20.013 42 18.6458 42 17C42 15.1591 40.5076 13.6667 38.6667 13.6667C37.1135 13.6667 35.8084 14.729 35.4384 16.1667Z" fill="black" fill-opacity="0.85"/>
</svg>
