<svg width="55" height="55" viewBox="0 0 55 55" fill="none" xmlns="http://www.w3.org/2000/svg">
<g style="mix-blend-mode:darken">
<circle cx="27.5" cy="27.5" r="27.5" fill="#F8D57E"/>
</g>
<path d="M17.7083 23.0417C17.7083 22.1672 18.4172 21.4583 19.2917 21.4583H20.875V19.875C20.875 19.0005 21.5839 18.2917 22.4583 18.2917C23.3328 18.2917 24.0417 19.0005 24.0417 19.875V21.4583H25.625C26.4995 21.4583 27.2083 22.1672 27.2083 23.0417C27.2083 23.9161 26.4995 24.625 25.625 24.625H24.0417V26.2083C24.0417 27.0828 23.3328 27.7917 22.4583 27.7917C21.5839 27.7917 20.875 27.0828 20.875 26.2083V24.625H19.2917C18.4172 24.625 17.7083 23.9161 17.7083 23.0417Z" fill="black" fill-opacity="0.85"/>
<path d="M37.5 21.4583C37.5 20.5839 36.7911 19.875 35.9167 19.875C35.0422 19.875 34.3333 20.5839 34.3333 21.4583C34.3333 22.3328 35.0422 23.0417 35.9167 23.0417C36.7911 23.0417 37.5 22.3328 37.5 21.4583Z" fill="black" fill-opacity="0.85"/>
<path d="M32.75 23.8333C33.6245 23.8333 34.3333 24.5422 34.3333 25.4167C34.3333 26.2911 33.6245 27 32.75 27C31.8755 27 31.1667 26.2911 31.1667 25.4167C31.1667 24.5422 31.8755 23.8333 32.75 23.8333Z" fill="black" fill-opacity="0.85"/>
<path fill-rule="evenodd" clip-rule="evenodd" d="M25.625 33.3333V34.125C25.625 38.06 22.435 41.25 18.5 41.25C14.565 41.25 11.375 38.06 11.375 34.125V23.0417C11.375 17.3577 15.9827 12.75 21.6667 12.75H34.3333C40.0173 12.75 44.625 17.3577 44.625 23.0417V34.125C44.625 38.06 41.435 41.25 37.5 41.25C33.565 41.25 30.375 38.06 30.375 34.125V33.3333H25.625ZM14.5417 23.0417C14.5417 19.1066 17.7316 15.9167 21.6667 15.9167H34.3333C38.2684 15.9167 41.4583 19.1066 41.4583 23.0417C41.4583 26.9767 38.2684 30.1667 34.3333 30.1667H21.6667C17.7316 30.1667 14.5417 26.9767 14.5417 23.0417ZM14.5417 30.4682C16.3908 32.2427 18.9014 33.3333 21.6667 33.3333H22.4583V34.125C22.4583 36.3111 20.6861 38.0833 18.5 38.0833C16.3139 38.0833 14.5417 36.3111 14.5417 34.125V30.4682ZM33.5417 33.3333V34.125C33.5417 36.3111 35.3139 38.0833 37.5 38.0833C39.6861 38.0833 41.4583 36.3111 41.4583 34.125V30.4682C39.6092 32.2427 37.0986 33.3333 34.3333 33.3333H33.5417Z" fill="black" fill-opacity="0.85"/>
</svg>
