<svg width="55" height="55" viewBox="0 0 55 55" fill="none" xmlns="http://www.w3.org/2000/svg">
<g style="mix-blend-mode:darken">
<circle cx="27.5" cy="27.5" r="27.5" fill="#F8D57E"/>
</g>
<path fill-rule="evenodd" clip-rule="evenodd" d="M9.75 14.5C9.75 13.6716 10.4216 13 11.25 13H13.875C14.5633 13 15.1633 13.4684 15.3302 14.1362L16.1712 17.5H42C42.4619 17.5 42.898 17.7128 43.1823 18.0769C43.4666 18.441 43.5672 18.9157 43.4552 19.3638L39.7052 34.3638C39.5383 35.0316 38.9383 35.5 38.25 35.5H18.75C18.0617 35.5 17.4617 35.0316 17.2948 34.3638L12.7038 16H11.25C10.4216 16 9.75 15.3284 9.75 14.5ZM16.9212 20.5L19.9212 32.5H37.0788L40.0788 20.5H16.9212Z" fill="black" fill-opacity="0.85"/>
<path fill-rule="evenodd" clip-rule="evenodd" d="M18.75 35.5C20.8211 35.5 22.5 37.1789 22.5 39.25C22.5 41.3211 20.8211 43 18.75 43C16.6789 43 15 41.3211 15 39.25C15 37.1789 16.6789 35.5 18.75 35.5ZM18.75 38.5C18.3358 38.5 18 38.8358 18 39.25C18 39.6642 18.3358 40 18.75 40C19.1642 40 19.5 39.6642 19.5 39.25C19.5 38.8358 19.1642 38.5 18.75 38.5Z" fill="black" fill-opacity="0.85"/>
<path fill-rule="evenodd" clip-rule="evenodd" d="M38.25 35.5C40.3211 35.5 42 37.1789 42 39.25C42 41.3211 40.3211 43 38.25 43C36.1789 43 34.5 41.3211 34.5 39.25C34.5 37.1789 36.1789 35.5 38.25 35.5ZM37.5 39.25C37.5 38.8358 37.8358 38.5 38.25 38.5C38.6642 38.5 39 38.8358 39 39.25C39 39.6642 38.6642 40 38.25 40C37.8358 40 37.5 39.6642 37.5 39.25Z" fill="black" fill-opacity="0.85"/>
</svg>
