<svg width="55" height="55" viewBox="0 0 55 55" fill="none" xmlns="http://www.w3.org/2000/svg">
<g style="mix-blend-mode:darken">
<circle cx="27.5" cy="27.5" r="27.5" fill="#F8D57E"/>
</g>
<path d="M12.9167 42.5417C12.1112 42.5417 11.4583 41.8888 11.4583 41.0834C11.4583 40.3355 12.0213 39.7191 12.7466 39.6349L12.9167 39.625H13.6458V36.7084C13.6458 35.9605 14.2088 35.3441 14.9341 35.2599L15.1042 35.25H15.8333V19.9375C15.0854 19.9375 14.469 19.3746 14.3848 18.6493L14.375 18.4792V14.3031C14.375 13.7368 14.7027 13.2218 15.2157 12.982L15.6079 12.8101L16.2094 12.5693C16.9754 12.2743 17.8457 11.9807 18.8066 11.7073C21.5491 10.9268 24.4831 10.4584 27.5 10.4584C30.5169 10.4584 33.4509 10.9268 36.1934 11.7073C37.1543 11.9807 38.0246 12.2743 38.7906 12.5693L39.3921 12.8101L39.7843 12.982C40.2972 13.2218 40.625 13.7368 40.625 14.3031V18.4792C40.625 19.2846 39.9721 19.9375 39.1667 19.9375V35.25H39.8958C40.6437 35.25 41.2601 35.813 41.3444 36.5383L41.3542 36.7084V39.625H42.0833C42.8887 39.625 43.5417 40.278 43.5417 41.0834C43.5417 41.8313 42.9787 42.4477 42.2534 42.5319L42.0833 42.5417H12.9167ZM38.4375 38.1667H16.5625V39.625H38.4375V38.1667ZM20.9375 19.9375H18.75V35.25H20.9375V19.9375ZM26.0417 19.9375H23.8542V35.25H26.0417V19.9375ZM31.1458 19.9375H28.9583V35.25H31.1458V19.9375ZM36.25 19.9375H34.0625V35.25H36.25V19.9375ZM27.5 13.375C24.7748 13.375 22.1033 13.8015 19.6049 14.5125C18.7315 14.7611 17.944 15.0268 17.2574 15.2911L17.2902 15.2767L17.2917 17.0209H37.7083V15.2767L37.3186 15.1325C36.8828 14.974 36.4118 14.8164 35.9087 14.6636L35.3951 14.5125C32.8967 13.8015 30.2252 13.375 27.5 13.375Z" fill="black" fill-opacity="0.85"/>
</svg>
