<svg width="55" height="55" viewBox="0 0 55 55" fill="none" xmlns="http://www.w3.org/2000/svg">
<g style="mix-blend-mode:darken">
<circle cx="27.5" cy="27.5" r="27.5" fill="#F8D57E"/>
</g>
<path fill-rule="evenodd" clip-rule="evenodd" d="M26.25 11.25C27.1475 11.25 27.875 11.9775 27.875 12.875V19.375C27.875 20.2725 27.1475 21 26.25 21C25.3525 21 24.625 20.2725 24.625 19.375V12.875C24.625 11.9775 25.3525 11.25 26.25 11.25ZM18.125 14.5C19.0225 14.5 19.75 15.2275 19.75 16.125V19.375C19.75 20.2725 19.0225 21 18.125 21C17.2275 21 16.5 20.2725 16.5 19.375V16.125C16.5 15.2275 17.2275 14.5 18.125 14.5ZM34.375 14.5C35.2725 14.5 36 15.2275 36 16.125V19.375C36 20.2725 35.2725 21 34.375 21C33.4775 21 32.75 20.2725 32.75 19.375V16.125C32.75 15.2275 33.4775 14.5 34.375 14.5ZM10 24.25C10 23.3525 10.7275 22.625 11.625 22.625H40.875C41.7725 22.625 42.5 23.3525 42.5 24.25C42.5 24.2604 42.5 24.2709 42.5 24.2813C44.0309 24.3999 45.4574 24.8522 46.5879 25.579C47.8989 26.4217 49 27.7812 49 29.5312C49 31.2813 47.8989 32.6408 46.5879 33.4835C45.2595 34.3375 43.5225 34.8125 41.6875 34.8125C41.2446 34.8125 40.8094 34.7849 40.3856 34.7316C39.8631 35.8548 39.2411 36.9059 38.5165 37.8675C35.7676 41.5156 31.6278 43.75 26.25 43.75C20.8722 43.75 16.7324 41.5156 13.9835 37.8675C11.2756 34.2739 10 29.4285 10 24.25ZM39.2023 25.875C39.0932 27.7062 38.7982 29.4317 38.3264 31.0081C37.7668 32.8767 36.9592 34.5337 35.921 35.9116C33.7949 38.733 30.6222 40.5 26.25 40.5C21.8778 40.5 18.7051 38.733 16.579 35.9116C14.666 33.3729 13.5363 29.8864 13.2977 25.875H39.2023ZM41.5497 31.5612C41.5954 31.5621 41.6413 31.5625 41.6875 31.5625C42.9936 31.5625 44.1003 31.2191 44.8304 30.7497C45.5779 30.2692 45.75 29.8005 45.75 29.5312C45.75 29.262 45.5779 28.7933 44.8304 28.3128C44.2219 27.9216 43.3517 27.6179 42.3225 27.5276C42.1702 28.8998 41.919 30.2306 41.5663 31.5018C41.5608 31.5216 41.5552 31.5414 41.5497 31.5612Z" fill="black" fill-opacity="0.85"/>
</svg>
